<svg width="26" height="28" viewBox="0 0 26 28" fill="none" xmlns="http://www.w3.org/2000/svg">
<g clip-path="url(#clip0_2084_1724)">
<path d="M11.8282 13.3486L0.104492 25.6315C0.236148 26.0981 0.472738 26.5284 0.796176 26.8895C1.11961 27.2506 1.52134 27.533 1.97064 27.7151C2.41994 27.8972 2.90492 27.9741 3.38851 27.94C3.87209 27.9059 4.34149 27.7617 4.7608 27.5184L17.9522 20.0055L11.8282 13.3486Z" fill="#EA4335"/>
<path d="M23.683 11.2606L17.9786 7.99316L11.5576 13.6278L18.0047 19.9877L23.6657 16.7553C24.1672 16.4927 24.5872 16.0978 24.8803 15.6135C25.1734 15.1292 25.3283 14.574 25.3283 14.0079C25.3283 13.4418 25.1734 12.8865 24.8803 12.4022C24.5872 11.9179 24.1672 11.5231 23.6657 11.2605H23.6832L23.683 11.2606Z" fill="#FBBC04"/>
<path d="M0.104909 2.32422C0.0340459 2.5862 -0.0012296 2.85652 3.27129e-05 3.12791V24.8281C0.000767424 25.0994 0.036009 25.3695 0.104909 25.6319L12.2305 13.6635L0.104909 2.32422Z" fill="#4285F4"/>
<path d="M11.9155 13.9776L17.9784 7.99346L4.80453 0.445533C4.30888 0.15525 3.74514 0.00152196 3.17074 6.06802e-06C1.74531 -0.00276425 0.492139 0.943299 0.104492 2.3151L11.9155 13.9776Z" fill="#34A853"/>
</g>
<defs>
<clipPath id="clip0_2084_1724">
<rect width="25.3286" height="28" fill="white"/>
</clipPath>
</defs>
</svg>
