<svg width="60" height="60" viewBox="0 0 60 60" fill="none" xmlns="http://www.w3.org/2000/svg">
<path d="M3.75 49.8047L12.0703 49.8047L12.0703 47.6953L3.75 47.6953L3.75 49.8047ZM3.75 31.0547L44.1797 31.0547L44.1797 28.9453L3.75 28.9453L3.75 31.0547ZM3.75 12.3047L23.3203 12.3047L23.3203 10.1953L3.75 10.1953L3.75 12.3047ZM14.1797 54.1406C14.1797 54.743 14.6367 55.1953 15.2344 55.1953L18.5156 55.1953C19.1133 55.1953 19.5703 54.743 19.5703 54.1406L19.5703 43.3594C19.5703 42.7617 19.1133 42.3047 18.5156 42.3047L15.2344 42.3047C14.6367 42.3047 14.1797 42.7617 14.1797 43.3594L14.1797 54.1406ZM21.6797 49.8047L56.25 49.8047L56.25 47.6953L21.6797 47.6953L21.6797 49.8047ZM25.4297 16.6406C25.4297 17.2383 25.8867 17.6953 26.4844 17.6953L29.7656 17.6953C30.3633 17.6953 30.8203 17.2383 30.8203 16.6406L30.8203 5.85937C30.8203 5.26172 30.3633 4.80469 29.7656 4.80469L26.4844 4.80469C25.8867 4.80469 25.4297 5.26172 25.4297 5.85937L25.4297 16.6406ZM32.9297 12.3047L56.25 12.3047L56.25 10.1953L32.9297 10.1953L32.9297 12.3047ZM46.2891 35.3906C46.2891 35.9883 46.7461 36.4453 47.3437 36.4453L50.625 36.4453C51.2227 36.4453 51.6797 35.9883 51.6797 35.3906L51.6797 24.6094C51.6797 24.0117 51.2227 23.5547 50.625 23.5547L47.3437 23.5547C46.7461 23.5547 46.2891 24.0117 46.2891 24.6094L46.2891 35.3906ZM53.7891 31.0547L56.25 31.0547L56.25 28.9453L53.7891 28.9453L53.7891 31.0547Z" fill="url(#paint0_linear_346_809)"/>
<defs>
<linearGradient id="paint0_linear_346_809" x1="9.5" y1="14" x2="40.5088" y2="75.028" gradientUnits="userSpaceOnUse">
<stop stop-color="white"/>
<stop offset="1" stop-color="white" stop-opacity="0"/>
</linearGradient>
</defs>
</svg>
