<svg width="76" height="76" viewBox="0 0 76 76" fill="none" xmlns="http://www.w3.org/2000/svg">
<path d="M59.9941 15.8793C57.1337 12.9899 53.7266 10.699 49.9715 9.14021C46.2165 7.58141 42.1886 6.78589 38.1229 6.80005C21.0877 6.80005 7.2037 20.6841 7.2037 37.7193C7.2037 43.1793 8.6389 48.4833 11.3221 53.1633L6.9541 69.2001L23.3341 64.8945C27.8581 67.3593 32.9437 68.6697 38.1229 68.6697C55.1581 68.6697 69.0421 54.7857 69.0421 37.7505C69.0421 29.4825 65.8285 21.7137 59.9941 15.8793ZM38.1229 63.4281C33.5053 63.4281 28.9813 62.1801 25.0189 59.8401L24.0829 59.2785L14.3485 61.8368L16.9381 52.3521L16.3141 51.3849C13.7487 47.2882 12.3865 42.5529 12.3829 37.7193C12.3829 23.5545 23.9269 12.0105 38.0917 12.0105C44.9557 12.0105 51.4141 14.6937 56.2501 19.5609C58.6446 21.9444 60.5423 24.7796 61.833 27.9019C63.1237 31.0243 63.7819 34.3718 63.7693 37.7505C63.8317 51.9153 52.2877 63.4281 38.1229 63.4281ZM52.2253 44.2089C51.4453 43.8344 47.6389 41.9625 46.9525 41.6817C46.2349 41.4321 45.7357 41.3073 45.2053 42.0561C44.6749 42.8361 43.2085 44.5833 42.7717 45.0825C42.3349 45.6129 41.8669 45.6753 41.0869 45.2697C40.3069 44.8953 37.8109 44.0529 34.8781 41.4321C32.5693 39.3729 31.0405 36.8457 30.5725 36.0657C30.1357 35.2857 30.5101 34.8801 30.9157 34.4745C31.2589 34.1313 31.6957 33.5697 32.0701 33.1329C32.4445 32.6961 32.6005 32.3528 32.8501 31.8537C33.0997 31.3232 32.9749 30.8865 32.7877 30.5121C32.6005 30.1377 31.0405 26.3313 30.4165 24.7713C29.7925 23.2737 29.1373 23.4609 28.6693 23.4297H27.1717C26.6413 23.4297 25.8301 23.6169 25.1125 24.3969C24.4261 25.1769 22.4293 27.0489 22.4293 30.8553C22.4293 34.6617 25.2061 38.3433 25.5805 38.8425C25.9549 39.3729 31.0405 47.1729 38.7781 50.5113C40.6189 51.3225 42.0541 51.7905 43.1773 52.1337C45.0181 52.7265 46.7029 52.6329 48.0445 52.4456C49.5421 52.2272 52.6309 50.5737 53.2549 48.764C53.9101 46.9545 53.9101 45.4257 53.6917 45.0825C53.4733 44.7393 53.0053 44.5833 52.2253 44.2089Z" fill="url(#paint0_linear_1068_1900)"/>
<defs>
<linearGradient id="paint0_linear_1068_1900" x1="-0.630856" y1="18.1454" x2="33.5248" y2="86.6666" gradientUnits="userSpaceOnUse">
<stop stop-color="white"/>
<stop offset="1" stop-color="white" stop-opacity="0"/>
</linearGradient>
</defs>
</svg>
