<svg width="77" height="78" viewBox="0 0 77 78" fill="none" xmlns="http://www.w3.org/2000/svg">
<path d="M48.0338 15.164H13.4717C11.8913 15.164 10.3756 15.7918 9.25804 16.9093C8.14052 18.0269 7.5127 19.5426 7.5127 21.123V56.8769C7.5127 58.4573 8.14052 59.973 9.25804 61.0905C10.3756 62.2081 11.8913 62.8359 13.4717 62.8359H63.338C64.9184 62.8359 66.4341 62.2081 67.5516 61.0905C68.6691 59.973 69.2969 58.4573 69.2969 56.8769V36.4674" stroke="url(#paint0_linear_1068_1894)" stroke-width="5.4" stroke-linecap="round" stroke-linejoin="round"/>
<path d="M17.0479 24.6984L38.5002 41.3836L51.461 31.6004" stroke="url(#paint1_linear_1068_1894)" stroke-width="5.4" stroke-linecap="round" stroke-linejoin="round"/>
<path d="M64.7117 27.082C68.6568 27.082 71.855 23.8838 71.855 19.9386C71.855 15.9935 68.6568 12.7953 64.7117 12.7953C60.7665 12.7953 57.5684 15.9935 57.5684 19.9386C57.5684 23.8838 60.7665 27.082 64.7117 27.082Z" fill="url(#paint2_linear_1068_1894)"/>
<path d="M64.7193 29.4655C62.8351 29.4655 60.9931 28.9068 59.4264 27.86C57.8597 26.8131 56.6387 25.3252 55.9176 23.5844C55.1965 21.8436 55.0078 19.928 55.3754 18.08C55.743 16.232 56.6504 14.5344 57.9828 13.2021C59.3151 11.8697 61.0127 10.9623 62.8607 10.5947C64.7087 10.2271 66.6243 10.4158 68.3651 11.1369C70.1059 11.858 71.5938 13.079 72.6407 14.6457C73.6875 16.2124 74.2462 18.0544 74.2462 19.9386C74.2443 22.4647 73.2399 24.8868 71.4537 26.673C69.6675 28.4592 67.2454 29.4636 64.7193 29.4655ZM64.7193 15.1789C63.7761 15.1774 62.8537 15.4557 62.0688 15.9787C61.2838 16.5016 60.6717 17.2456 60.3097 18.1166C59.9477 18.9875 59.8523 19.9463 60.0354 20.8715C60.2185 21.7968 60.6719 22.6469 61.3383 23.3143C62.0047 23.9818 62.8541 24.4366 63.7791 24.6211C64.704 24.8056 65.6629 24.7117 66.5345 24.3511C67.406 23.9905 68.151 23.3795 68.6751 22.5953C69.1993 21.8112 69.4791 20.8892 69.4791 19.9461C69.4791 18.683 68.9778 17.4716 68.0854 16.5778C67.193 15.684 65.9824 15.1808 64.7193 15.1789Z" fill="url(#paint3_linear_1068_1894)"/>
<defs>
<linearGradient id="paint0_linear_1068_1894" x1="-0.035155" y1="23.8316" x2="47.553" y2="91.2356" gradientUnits="userSpaceOnUse">
<stop stop-color="white"/>
<stop offset="1" stop-color="white" stop-opacity="0"/>
</linearGradient>
<linearGradient id="paint1_linear_1068_1894" x1="12.8438" y1="27.7321" x2="18.0437" y2="49.356" gradientUnits="userSpaceOnUse">
<stop stop-color="white"/>
<stop offset="1" stop-color="white" stop-opacity="0"/>
</linearGradient>
<linearGradient id="paint2_linear_1068_1894" x1="55.823" y1="15.3929" x2="63.6194" y2="31.1122" gradientUnits="userSpaceOnUse">
<stop stop-color="white"/>
<stop offset="1" stop-color="white" stop-opacity="0"/>
</linearGradient>
<linearGradient id="paint3_linear_1068_1894" x1="52.8647" y1="13.876" x2="63.2626" y2="34.8406" gradientUnits="userSpaceOnUse">
<stop stop-color="white"/>
<stop offset="1" stop-color="white" stop-opacity="0"/>
</linearGradient>
</defs>
</svg>
