<svg width="82" height="81" viewBox="0 0 82 81" fill="none" xmlns="http://www.w3.org/2000/svg">
<path d="M41 74.25L40.1562 64.125H39.3125C31.325 64.125 24.5469 61.3406 18.9781 55.7719C13.4094 50.2031 10.625 43.425 10.625 35.4375C10.625 27.45 13.4094 20.6719 18.9781 15.1031C24.5469 9.53437 31.325 6.75 39.3125 6.75C43.3063 6.75 47.0334 7.49475 50.4939 8.98425C53.9544 10.4737 56.9919 12.5269 59.6064 15.1436C62.2209 17.7604 64.2729 20.7979 65.7624 24.2561C67.2519 27.7144 67.9977 31.4415 68 35.4375C68 43.9875 65.4406 51.6521 60.3219 58.4314C55.2031 65.2106 48.7625 70.4835 41 74.25ZM39.2281 53.9156C40.1844 53.9156 41 53.5781 41.675 52.9031C42.35 52.2281 42.6875 51.4125 42.6875 50.4562C42.6875 49.5 42.35 48.6844 41.675 48.0094C41 47.3344 40.1844 46.9969 39.2281 46.9969C38.2719 46.9969 37.4562 47.3344 36.7812 48.0094C36.1063 48.6844 35.7687 49.5 35.7687 50.4562C35.7687 51.4125 36.1063 52.2281 36.7812 52.9031C37.4562 53.5781 38.2719 53.9156 39.2281 53.9156ZM39.3125 43.2C39.9312 43.2 40.4937 42.975 41 42.525C41.5063 42.075 41.8438 41.4562 42.0125 40.6688C42.125 39.9375 42.4344 39.276 42.9406 38.6842C43.4469 38.0925 44.3188 37.179 45.5563 35.9437C46.5688 34.9312 47.4125 33.8344 48.0875 32.6531C48.7625 31.4719 49.1 30.2063 49.1 28.8563C49.1 25.9875 48.1302 23.8354 46.1908 22.3999C44.2513 20.9644 41.9585 20.2478 39.3125 20.25C37.3438 20.25 35.6416 20.7 34.2061 21.6C32.7706 22.5 31.604 23.625 30.7062 24.975C30.3125 25.5938 30.2427 26.2406 30.497 26.9156C30.7512 27.5906 31.271 28.0687 32.0563 28.35C32.6188 28.575 33.1813 28.575 33.7438 28.35C34.3063 28.125 34.8125 27.7031 35.2625 27.0844C35.7125 26.4656 36.2615 25.9594 36.9095 25.5656C37.5575 25.1719 38.3585 24.975 39.3125 24.975C40.8312 24.975 41.9709 25.3969 42.7314 26.2406C43.4919 27.0844 43.871 28.0125 43.8688 29.025C43.8688 29.9813 43.5875 30.8396 43.025 31.6001C42.4625 32.3606 41.7875 33.1335 41 33.9188C39.425 35.2688 38.3698 36.3656 37.8343 37.2094C37.2988 38.0531 36.9759 39.2062 36.8656 40.6688C36.8094 41.3438 37.0209 41.9344 37.5001 42.4406C37.9794 42.9469 38.5835 43.2 39.3125 43.2ZM47.75 57.375V61.9313C51.7438 58.5563 54.9928 54.6041 57.497 50.0749C60.0013 45.5456 61.2523 40.6665 61.25 35.4375C61.25 29.3062 59.126 24.1178 54.878 19.872C50.63 15.6263 45.4415 13.5023 39.3125 13.5C33.1812 13.5 27.9928 15.624 23.747 19.872C19.5013 24.12 17.3773 29.3085 17.375 35.4375C17.375 41.5687 19.499 46.7573 23.747 51.003C27.995 55.2488 33.1835 57.3727 39.3125 57.375H47.75Z" fill="url(#paint0_linear_1068_1903)"/>
<defs>
<linearGradient id="paint0_linear_1068_1903" x1="3.6158" y1="19.0227" x2="43.8972" y2="88.0569" gradientUnits="userSpaceOnUse">
<stop stop-color="white"/>
<stop offset="1" stop-color="white" stop-opacity="0"/>
</linearGradient>
</defs>
</svg>
