<svg width="76" height="76" viewBox="0 0 76 76" fill="none" xmlns="http://www.w3.org/2000/svg">
<path d="M38 8.3125C32.1284 8.3125 26.3886 10.0536 21.5065 13.3157C16.6244 16.5779 12.8193 21.2144 10.5723 26.6391C8.32536 32.0638 7.73745 38.0329 8.88295 43.7917C10.0284 49.5506 12.8559 54.8404 17.0078 58.9922C21.1597 63.1441 26.4495 65.9716 32.2083 67.1171C37.9671 68.2626 43.9362 67.6746 49.3609 65.4277C54.7856 63.1807 59.4222 59.3756 62.6843 54.4935C65.9464 49.6114 67.6875 43.8716 67.6875 38C67.6718 30.1312 64.539 22.5892 58.9749 17.0251C53.4108 11.461 45.8688 8.32819 38 8.3125ZM40.375 62.8188V53.4375C40.375 52.8076 40.1248 52.2035 39.6794 51.7581C39.234 51.3127 38.6299 51.0625 38 51.0625C37.3701 51.0625 36.766 51.3127 36.3206 51.7581C35.8752 52.2035 35.625 52.8076 35.625 53.4375V62.8188C29.8639 62.255 24.477 59.7093 20.3839 55.6161C16.2907 51.523 13.745 46.1361 13.1813 40.375H22.5625C23.1924 40.375 23.7965 40.1248 24.2419 39.6794C24.6873 39.234 24.9375 38.6299 24.9375 38C24.9375 37.3701 24.6873 36.766 24.2419 36.3206C23.7965 35.8752 23.1924 35.625 22.5625 35.625H13.1813C13.745 29.8639 16.2907 24.477 20.3839 20.3839C24.477 16.2907 29.8639 13.745 35.625 13.1813V22.5625C35.625 23.1924 35.8752 23.7965 36.3206 24.2419C36.766 24.6873 37.3701 24.9375 38 24.9375C38.6299 24.9375 39.234 24.6873 39.6794 24.2419C40.1248 23.7965 40.375 23.1924 40.375 22.5625V13.1813C46.1361 13.745 51.523 16.2907 55.6162 20.3839C59.7093 24.477 62.255 29.8639 62.8188 35.625H53.4375C52.8076 35.625 52.2035 35.8752 51.7581 36.3206C51.3127 36.766 51.0625 37.3701 51.0625 38C51.0625 38.6299 51.3127 39.234 51.7581 39.6794C52.2035 40.1248 52.8076 40.375 53.4375 40.375H62.8188C62.255 46.1361 59.7093 51.523 55.6162 55.6161C51.523 59.7093 46.1361 62.255 40.375 62.8188Z" fill="url(#paint0_linear_346_794)"/>
<defs>
<linearGradient id="paint0_linear_346_794" x1="1.05897" y1="19.108" x2="33.4605" y2="84.4371" gradientUnits="userSpaceOnUse">
<stop stop-color="white"/>
<stop offset="1" stop-color="white" stop-opacity="0"/>
</linearGradient>
</defs>
</svg>
