<svg width="76" height="76" viewBox="0 0 76 76" fill="none" xmlns="http://www.w3.org/2000/svg">
<path d="M40.932 65.3327C47.6015 62.3139 63.3337 52.9888 63.3337 32.1893V19.6235C63.3337 16.0835 63.3337 14.3108 62.644 12.9574C62.0368 11.7657 61.0654 10.7975 59.8737 10.1903C58.519 9.5 56.7479 9.5 53.2009 9.5H22.8009C19.2539 9.5 17.4791 9.5 16.1243 10.1903C14.9327 10.7975 13.9645 11.7657 13.3573 12.9574C12.667 14.3121 12.667 16.087 12.667 19.634V32.1893C12.667 52.9888 28.3984 62.3139 35.0678 65.3328C35.7749 65.6528 36.1302 65.8125 36.9304 65.9499C37.4352 66.0366 38.5686 66.0366 39.0734 65.9499C39.8709 65.813 40.2225 65.6539 40.9247 65.336L40.932 65.3327Z" stroke="url(#paint0_linear_331_1720)" stroke-width="5" stroke-linecap="round" stroke-linejoin="round"/>
<defs>
<linearGradient id="paint0_linear_331_1720" x1="6.47732" y1="19.7754" x2="39.2958" y2="79.0979" gradientUnits="userSpaceOnUse">
<stop stop-color="white"/>
<stop offset="1" stop-color="white" stop-opacity="0"/>
</linearGradient>
</defs>
</svg>
