<?xml version="1.0" encoding="UTF-8"?><svg id="a" xmlns="http://www.w3.org/2000/svg" xmlns:xlink="http://www.w3.org/1999/xlink" viewBox="0 0 227.36 227.04"><defs><style>.d{fill:url(#c);}.e{fill:url(#b);}</style><linearGradient id="b" x1="26.44" y1="40.47" x2="200.88" y2="186.85" gradientTransform="matrix(1, 0, 0, 1, 0, 0)" gradientUnits="userSpaceOnUse"><stop offset=".31" stop-color="#ef5858"/><stop offset="1" stop-color="#efa058"/></linearGradient><linearGradient id="c" x1="98.08" y1="188.68" x2="125.39" y2="211.59" xlink:href="#b"/></defs><path class="e" d="M119.94,226.93c.2-2.04,.16-4.08,.63-6,1.88-7.78,3.91-15.52,5.88-23.28,.1-.4,.31-.84,.22-1.2-1.79-7.32,2.29-13.49,3.77-20.18,.92-4.16,.82-8.55,1.21-13.18-.59,.22-.35,.05-.25,.11,4.83,2.8,5.23,2.3,6.82-3.06,4.2-14.21,.83-28.12-1.16-42.08-.35-2.48-1.37-5.02-2.69-7.17-1.1-1.79-3.07-3.03-4.67-4.51-.77-.72-2.36-1.76-2.22-2.08,1.78-4.17-2.39-7.01-1.9-10.85l-2.07-.31c.25-4.05,.7-7.83,.67-11.62-.04-4.59-5.04-7.76-9.45-6.28-1.07,.36-2.19,.55-3.28,.84-3.48,.91-3.82,2.1-3.51,5.73,.31,3.67-.19,7.42-.46,11.13-.2,2.71-.48,5.44-3.25,7.01-1.02,.58-1.93,1.71-2.97,1.81-3.5,.32-5.5,2.36-7.17,5.16-4.35,7.29-6.46,15.26-7.4,23.61-.18,1.63-.55,3.25-.63,4.88-.26,4.89-.09,9.67,3.83,13.41,2.05,1.96,2.03,5.88,6.42,5.95-.39,6.39-1.01,12.52-1.05,18.66-.03,5,.65,10,.99,15.01,.16,2.34,.56,4.71,.34,7.03-.97,10.21,.59,20.26,1.34,30.32C58.29,222.77,5.61,186.54,.41,123.35-5.17,55.5,46.86,2.81,108.25,.12c67.29-2.96,121.7,51.31,119.02,117.98-2.66,66-57,107.3-107.33,108.84Z"/><path class="d" d="M113.7,171.28c.69,5.89,1.86,11.77,1.93,17.66,.06,4.54-.76,9.25-2.08,13.62-1.74,5.77-1.97,11.43-1.17,17.29,.31,2.29,.05,4.66,.05,7.18h-4.99c.26-5.12,.68-10.08,.7-15.05,.02-5.12-.5-10.25-.52-15.37-.01-2.93,.35-5.88,.79-8.79,.48-3.23,1.11-6.45,1.93-9.61,.63-2.43,1.66-4.75,2.51-7.12l.85,.19Z"/></svg>